<?xml version="1.0" encoding="utf-8"?>
<!-- Generator: Adobe Illustrator 22.1.0, SVG Export Plug-In . SVG Version: 6.00 Build 0)  -->
<svg version="1.1" id="Layer_1" xmlns="http://www.w3.org/2000/svg" xmlns:xlink="http://www.w3.org/1999/xlink" x="0px" y="0px"
	 viewBox="0 0 1920 1080" style="enable-background:new 0 0 1920 1080;" xml:space="preserve">
<style type="text/css">
	.st0{opacity:0.58;}
	.st1{fill:#FFC250;}
</style>
<g class="st0">
	<path class="st1" d="M36.9,799.1c22.4-1,43.7,4.1,65.5,7.8c30,5.1,59.1,13.1,87,23.9c43.4,16.7,73.8,46.1,91.2,86.6
		c9.7,22.4,14.6,45.7,13.3,69.8c-2.5,44.4-13.5,86.7-40.8,124.1c-20.6,28.3-47.5,50.2-82.7,61.4c-40.6,13-77.9,5-111.1-19.5
		c-19.5-14.4-34.8-32.5-50.7-50.1c-17.5-19.3-35.1-38.6-50.9-59.3c-22.1-28.9-41.3-59.2-52.5-93.4c-7-21.4-10.3-43.3-3.3-65.1
		c10.3-31.8,32.1-54.6,65.6-67.4c4.4-1.7,8.5-3.7,12.5-6.1c15.3-9.3,32-13.6,50.2-12.9C32.4,799.2,34.6,799.1,36.9,799.1z"/>
</g>
</svg>
