<svg id="Layer_1" data-name="Layer 1" xmlns="http://www.w3.org/2000/svg" viewBox="0 0 564.03 784.7"><defs><style>.cls-1{fill:#f2cba0;}.cls-2{fill:#ffc250;}.cls-3{fill:#fff;}.cls-4{fill:#7a73b9;}.cls-5{fill:#68594b;}</style></defs><title>elegant</title><path class="cls-1" d="M1191.14,278c.32,11.27-1.29,22.4-2.36,33.58-1.12,11.78-2.32,23.55-3.73,35.3A306.83,306.83,0,0,1,1161,435.11c-6.12,13.81-11.72,27.85-19.92,40.63-9.92,15.44-22.47,28.11-38.51,37.26-13.92,7.94-28.3,8.84-43.42,4-19.19-6.11-35-17.27-48.38-32-22.46-24.81-41-52.41-56.93-81.77-11.5-21.16-22.26-42.67-30.11-65.51-4.61-13.39-8-27-8.18-41.27-.35-25.53,9.88-45.68,30.9-60.22,7.13-4.93,13.11-11.26,20.37-16.07,14-9.32,29.36-16.13,44.28-23.77a239,239,0,0,1,53.2-19.27c14.79-3.58,29.6-3.36,44.48-.76,9.93,1.74,20,3.1,29.37,6.92,26.18,10.65,42.64,29.84,49.22,57.34A147.08,147.08,0,0,1,1191.14,278Z" transform="translate(-627.15 -138.3)"/><path class="cls-2" d="M748.36,635.64c15.62-.76,30.57,3.09,45.77,5.91a298.36,298.36,0,0,1,60.77,18c30.31,12.64,51.55,34.9,63.74,65.51,6.75,16.95,10.22,34.59,9.27,52.84-1.75,33.61-9.41,65.58-28.5,93.89-14.41,21.38-33.2,37.95-57.79,46.48-28.39,9.86-54.45,3.8-77.61-14.73-13.6-10.88-24.33-24.61-35.45-37.9C716.32,851,704,836.45,693,820.84,677.58,799,664.14,776,656.34,750.19c-4.9-16.22-7.21-32.75-2.3-49.27,7.17-24.08,22.43-41.32,45.86-51a51.28,51.28,0,0,0,8.71-4.59,57.37,57.37,0,0,1,35.1-9.73C745.26,635.71,746.81,635.64,748.36,635.64Z" transform="translate(-627.15 -138.3)"/><path class="cls-3" d="M697.7,450.06c-.07-18.57,1.52-35,7.83-50.65a107.91,107.91,0,0,1,17.59-29.3,33.4,33.4,0,0,1,9.56-8c14.15-7.63,28.59-14.65,44.3-18.53,18.54-4.58,37-3.76,55.64.19,13.24,2.82,26.25,6.2,37.87,13.28,19.19,11.69,32.23,28,35,50.89,1.91,15.54-1.64,30.31-9.08,44.1s-17.24,25.81-28.36,36.73c-17.59,17.28-36.54,32.93-57.91,45.38a88,88,0,0,1-41.4,12.32c-27.95,1.06-49.18-12.86-61-39.46-5.69-12.82-8-26.38-9.32-40.19A144.23,144.23,0,0,1,697.7,450.06Z" transform="translate(-627.15 -138.3)"/><path class="cls-4" d="M831.14,515.2c-5.46-5.6-10.79-10.13-17.73-12.42-1.46-.48-2.88-1.08-4.29-1.67-1-.44-1.78-1.19-1.49-2.4.36-1.45,1.53-1,2.53-.9a36.39,36.39,0,0,1,18.33,7.46c9.3,7.37,17.14,15.79,19.49,28,1.47,7.63,1.86,15.28-.32,23.71a31.9,31.9,0,0,0,6.94-18.08c.91-14.63-5.07-26.36-15.5-36.17-7.61-7.14-16.09-13.22-24.17-19.79-14.5-11.8-24.86-26.18-28.76-44.82-2.93-14-1.09-27.57,3.18-41,4.8-15.12,12.78-28,25.32-37.93a9.1,9.1,0,0,1,1.2-1c.93-.51,2-1.65,3-.37.89,1.12-.32,1.95-.93,2.61-3.58,3.85-7.45,7.45-10.85,11.45-8.46,10-12.94,21.91-15.55,34.5-6,29.08,3.66,52.56,26.11,71.31,8.38,7,17.41,13.23,25.25,20.89,8.3,8.1,14.37,17.44,16.22,29.15,2.55,16.12-2.52,29.4-14.87,39.95-7.54,6.44-16.66,9.61-25.91,12.53-11.08,3.49-22.11,7.12-31.93,13.57-13.28,8.72-23.09,20.17-25.68,36.19-3.19,19.68,1.06,37.71,13.59,53.7,12.27,15.65,28.51,23.71,47.77,26.68,15,2.31,29.28.7,42.91-6.1a5.52,5.52,0,0,0,2.72-1.93c-12.52,1.81-22.6-2.82-31.48-10.95a53.73,53.73,0,0,1-16.84-29.22c-5.7-27.32,5.31-52.89,29.64-69.36,8.29-5.61,17.34-9.87,25.93-15,22.56-13.38,36.89-32.66,42.06-58.54,3.9-19.52-5.45-41.12-26.92-50.65-7.42-3.3-15.24-5.51-22.61-8.92-19.24-8.89-29.67-24.18-33.34-44.78a72.1,72.1,0,0,1,5.74-43.63c9.2-20.08,21.54-38,38.25-52.62,9.24-8.08,19.59-14.73,29.53-21.91a57.61,57.61,0,0,0,12.85-13.27c5.14-7.12,5.9-15.11,5.13-23.56-1.21-13.45-5.12-26.33-7.92-39.45-2-9.33.81-17.33,6.73-24.32a40.47,40.47,0,0,1,27.67-14.59c8.07-.79,18.35,3.34,20.36,12.45a20.78,20.78,0,0,1-.1,9.76c-.28,1.12-.78,2-2.07,1.74s-1.11-1.31-1.12-2.25v-.62c-.24-13.18-7.34-18.9-20.42-16.41-6.28,1.19-11.75,4.06-17.25,8.43,4.09-.24,7.64-1,11,.5a16.3,16.3,0,0,1,8.12,7.48,22.35,22.35,0,0,1-6.74-3.22c-5.69-3.63-11.76-2.63-16.66.59-4.52,3-6.12,8.68-6.3,14.17-.24,7.28,2.21,14.15,3.92,21.1A201.94,201.94,0,0,1,930,265c.94,10.27-3,18.87-9.49,26.58s-14.22,13.65-22.47,19.15c-21.24,14.15-34.52,33.69-39.58,58.76-.83,4.11.54,7.93,1.63,11.77,4.59,16.08,9,32.15,16.62,47.24,10,19.84,26.3,30.56,47.46,34.58,10.85,2.06,21.91,2.72,32.87.68,16.62-3.08,31.28-10.09,43.74-21.83,6.95-6.55,9.8-14.68,11.65-23.52q.28-1.35.6-2.7c1.4-6.1,1.84-6.55,8-8.05.44-6.47.92-13,1.32-19.6.13-2.05,0-4.12.09-6.19.2-5.12,1.62-8.9,7.22-11.14,8.57-3.43,13.74-10.64,16.68-19.24,4.17-12.22,5.23-24.7,2.09-37.36-.2-.8-.41-1.59-.67-2.37-2.48-7.15-6-10.2-11.88-10.24A16,16,0,0,0,1021,312c-.24.67-.34,1.4-.63,2.05-.4.9-.69,2.13-2.12,1.7-1.21-.37-1.41-1.45-1.25-2.52a18.86,18.86,0,0,1,24.15-15.89c4.71,1.31,7.56,4.72,9.77,8.86,2.67,5,3.64,10.5,4.06,16,1,13-.61,25.72-6.92,37.42a33.64,33.64,0,0,1-18.48,16,3.25,3.25,0,0,0-2.45,3c-.84,5.84-.25,11.73-.94,17.59-.34,2.9-1.17,5.85-.56,9,3-1.1,5.45-3,8-4.6,4-2.5,8-5.13,12-7.57,1.8-1.08,3.78-2.61,5.93-.84s2.44,4.3,2.09,6.78c-1,7.3-5.15,12.91-10.36,17.77a37.24,37.24,0,0,1-6.43,4.8c-4.68,2.77-7.06,6.95-8.35,12.44a54.89,54.89,0,0,0,8-7.08,38.94,38.94,0,0,1,16.57-9.73c9.44-2.86,18.28-7.29,27.49-10.74a28.59,28.59,0,0,1,3.54-1c4.6-1.07,7.1,0,9.45,4.15,12.87-2.71,25.72-1.9,38.47.86,9.79,2.12,17.56,8.06,24.65,14.66,15.25,14.18,23.91,31.92,27.3,52.38,2.57,15.5,3.23,31.12,3.77,46.78.63,18.45,1.55,36.89,2.27,55.34.2,5,.25,10.12.11,15.17a10.08,10.08,0,0,1-3.06,6.79c-5.62,5.88-12.42,10.17-19.24,14.41a4.4,4.4,0,0,0-2.49,4.35c.12,9.08.15,18.17,0,27.25q-.44,34.2-2.92,68.31c-.7,9.57-.76,19.18-1.44,28.74-1.09,15.49-2,31-6.64,46-3.74,12.18-11,20.79-22.18,26.74-13.15,7-27.34,10.66-41.63,14.12-19.74,4.77-39.83,7.17-60,9.45-23.34,2.64-46.77,4.25-70.18,6.13-3.48.28-6.94.85-10.43,1.14-1.34.12-2,1-2.7,1.82a86.21,86.21,0,0,1-16.51,13.91c-10.73,7.15-22,8.36-34.06,3.79-16.72-6.31-30.11-17.13-42.14-30-14.52-15.53-25.78-33.42-37.22-51.19-2.11-3.28-4.17-6.6-6.29-9.95-6,2.88-11.81,5.49-18.17,6.95-5.77,1.32-10.95-.24-16-2.56-2.1-1-2.82-3.49-4.51-5-11.12,4.43-21.79,1.8-31.88-2.9-10.59-4.93-17.19-13.47-18.86-25.58-2.85.79-5.55,1.58-8.28,2.28-10.89,2.8-27-6.11-31.42-21.32-3.3-11.33-.5-21.8,5.47-31.54,3-4.92,6.51-9.53,9.64-14.37,5.27-8.16,3.3-16.38-5-21.57-3.87-2.42-8.22-3.74-12.44-5.35-27.17-10.4-41.76-31-47.05-58.79-1.71-9-.08-18.07,2.57-26.84a4.75,4.75,0,0,0-.66-4.51c-8.19-12.59-9.26-25.84-4.36-40.07,6-17.49,18.41-28.89,33.92-37.65,11.34-6.4,23.71-10.39,35.65-15.39,22.29-9.35,41.1-23.1,54.46-43.51,9.17-14,14.16-29.57,15.73-46.25,1.55-16.45-.29-32.72-2.39-49-2.13-16.44-4.73-32.8-4.53-49.47.31-25.15,10.79-45.15,29.62-61.33,14.79-12.7,32.17-20.49,50.1-27.37,13-5,25.9-10.19,36.82-19.14,8.29-6.8,16.6-13.6,24.53-20.81,12.08-11,26.4-15.91,42.36-17.1,10.23-.76,20.17.21,29.58,4.5A32.39,32.39,0,0,1,993,160.51a16.51,16.51,0,0,1,.82,8.2,1.9,1.9,0,0,1-1.73,1.89c-1.17,0-1.56-1-1.7-1.88-2.16-14.54-12.1-21.41-25.19-23.83-21.82-4-41.52.85-58.68,15.63-10.76,9.27-21.07,19.14-33.22,26.73-10,6.26-21,10.28-32,14.44-15.55,5.91-30.55,12.72-43.57,23.38-14.4,11.8-24.77,26.08-28.31,44.67a93.54,93.54,0,0,0-1.37,21.86c.74,17,4,33.73,5.75,50.62,2.22,21.26,3.45,42.47-3.1,63.39-8.75,28-26.77,48.28-51.36,63.3-11.92,7.28-25.11,11.77-38,17-11.31,4.65-22,10.29-31.1,18.63-12,11-18.14,24.78-17.94,41.1.07,6,2.29,11.72,4.67,18,1.12-2.65,2-4.71,2.85-6.77,5.34-12.7,15.57-20.45,27.17-26.79,8.43-4.61,17.69-7.14,26.62-10.48,18.57-6.94,32.75-19.47,44.72-34.84a42.5,42.5,0,0,0,4.37-7.76c.59-1.22,1-2.83,3.16-2.57,1,3-.53,5.61-1.69,8.06-4.51,9.49-11.93,16.67-19.4,23.81-11.39,10.88-25.29,17.07-40,21.82a105.3,105.3,0,0,0-19.13,8.47c-13.55,7.59-20.85,19.42-24.86,34.14-6.13,22.48.06,41.75,13.82,59.46A64.56,64.56,0,0,0,683,650.92c5.07,2,10.17,4,14.37,7.64,8.58,7.49,10,17.22,3.83,26.69-2.64,4.06-5.36,8.06-8,12.1a41,41,0,0,0-6.75,18.34c-1.88,16.89,14.87,33,31.3,27.77,6.69-2.14,7.88-1.17,9.69,5.64,3.56,13.34,13.15,19.84,26,22.44,5.21,1.05,10.51,2.23,15.73-.18-14-28.83-19.82-60.18-28.33-90.69q-2.07-7.42-3.91-14.9a9.5,9.5,0,0,0-3.09-4.79c-5.43-5.05-11.53-9.38-16.32-15.13-11.62-14-15.62-29.94-13.46-47.85,2.48-20.5,13.84-35.72,28.42-49.09,4.31-4,8.85-7.6,12.71-12.1A47.34,47.34,0,0,1,768.46,522a231,231,0,0,1,45.42-8.1C819.42,513.43,824.93,514.37,831.14,515.2ZM804.85,755.74c4.84,7.48,9.4,14.58,14,21.64,12.69,19.37,24.52,39.37,40.39,56.48,11.18,12.06,23.52,22.48,39.16,28.4,8.33,3.15,16.61,3.79,24.75-.51A64.8,64.8,0,0,0,949.51,837c11.79-20.15,20.34-41.75,27.71-63.81,7.51-22.48,14.41-45.17,22.09-67.59,9.25-27,18.36-54.08,25.2-81.78,4.65-18.88,11.75-36.34,23.12-52,5.18-7.14,7.11-15.24,7.54-23.74.51-10.32-1.19-20.55-2.13-30.8-.7-7.6-1.39-15.22-.14-22.83,2.31-14.15,7.56-27.22,14.09-39.92,6-11.58,13.66-22,20.42-33.08a15.05,15.05,0,0,0,2.62-6,9.55,9.55,0,0,0-4.74,2.52,158.35,158.35,0,0,0-18.66,17.59,91.55,91.55,0,0,0-8.76,10.79c-.63,1-1.6,1.83-2.87,1.2-1.51-.76-.58-2.09-.24-3a23.44,23.44,0,0,1,4.08-6.85c8.85-10.51,18.07-20.61,30.34-27.51-2.53-2-5.11-1.44-7.42,0a134,134,0,0,0-26.85,21.67c-4.3,4.59-8.59,9.2-12.91,13.77-.77.82-1.78,1.82-2.91.84s-.55-2.25.26-3.28a18.42,18.42,0,0,1,1.42-1.63c7.71-7.89,15.1-16.13,23.93-22.85.39-.3,1-.6.71-1.61a64.45,64.45,0,0,1-6.61,2.71A51,51,0,0,0,1035,434.46c-2.65,2.84-6,5-9,7.49-1,.81-2.16,1.41-3.38.55s-.33-2,0-3.05c.21-.68.38-1.37.54-2.06,2-8.39,4.89-16,13.17-20.57,5.35-2.92,9-7.75,11.79-13.18,1.23-2.44,2.21-5,1.25-8.1-4.1,1.83-7.45,4.37-10.92,6.7-5.79,3.9-11.44,8.05-18.23,10.12a1.86,1.86,0,0,0-1.47,1.67c-2.48,11.44-6.51,22.45-10,33.6a41.37,41.37,0,0,0-2,18.3c1.61,12.58,3.71,25.07,5.48,37.62,2.27,16.06,3.37,32.2,2.14,48.43-.1,1.24,0,2.78-.94,3.48-1.69,1.23-2.1,3-2.63,4.73a118.67,118.67,0,0,1-6,15.48c-9,19.37-20.42,37.41-31.26,55.77-17.79,30.13-36.68,59.48-59.3,86.29-4.58,5.42-9,11.06-11.88,17.61-7.35,16.7-8.13,34-4.67,51.73a7.19,7.19,0,0,1,.08,4.25c-2.15-1.88-2.73-4.2-3.36-6.44-3.08-11-4.25-22.27-1.92-33.6.79-3.81.14-6.13-3.28-8.58-4.84-3.47-8.39-8.47-12.06-13.2-.59-.76-1-2.1-2.29-1.73-6.08,1.77-12.46,1.14-18.59,2.63-12.11,2.93-23.18,8.31-34,14.28C816.26,748,810.74,752,804.85,755.74ZM952.71,843c3.94-.49,7.29-1,10.66-1.29,21.47-1.68,42.94-3.17,64.36-5.52,21.7-2.39,43.32-5,64.58-10.07,13.11-3.1,26.07-6.57,38-13.15,9.45-5.21,15.57-12.63,18.55-23.11,3.75-13.19,4.84-26.7,6-40.23,1.53-17.14,2.29-34.34,3.56-51.51,1.47-20,2.22-40,1.84-60-.11-5.7,0-11.41,0-17.51-4.09,1.65-7.26,3.1-10.54,4.22-18.49,6.36-37.57,10.45-56.62,14.61-3.22.71-3.6,2.36-3.8,4.79q-1.21,15.24-3.11,30.41c-2.45,19.61-6,39-10.26,58.29-1.14,5.23-2.49,10.4-3.83,15.93,4.33-1,8.26-2.08,12.25-2,13.81.46,25.64,5.5,34.79,16.05,2.89,3.33,5.48,7,6.56,11.4.28,1.14.93,2.92-.91,3.41-1.67.45-1.79-1.23-2.29-2.31-6.91-14.75-23.2-24.46-39.39-23.11-11.77,1-22.52,5.51-32.81,11-23.2,12.31-47.12,22.85-72.44,30a3.48,3.48,0,0,0-2.67,2.22A317.17,317.17,0,0,1,952.71,843ZM914.19,543.75a156.65,156.65,0,0,0,15.74,5.86,60.38,60.38,0,0,0,14.51,2.74c12.38.44,23.51-3.59,33.81-10.05,11.29-7.09,20.62-16.4,29.11-26.6a6.2,6.2,0,0,0,1.27-5.44c-1-6.51-1.85-13.05-2.91-19.55-1-6.21-1.22-12.55-2.42-18.68a101.64,101.64,0,0,1-1.92-16.17c-.12-3.85,1.79-7.31,2.44-11.06-1-.07-1.32.71-1.8,1.17-9.12,8.74-19.44,15.66-31.49,19.52-18.65,6-37.41,5.65-56.15.09-13-3.84-24.16-10.42-32.73-20.93-10-12.33-15.88-26.8-20.2-41.93-1.59-5.61-3-11.28-4.45-16.91a69.84,69.84,0,0,0,0,14.31c1.47,16.54,6.13,31.91,16.35,45.19,6.28,8.17,13.14,15.75,22.57,20.67,21.16,11.06,31.05,34,25.22,57.51A121.86,121.86,0,0,1,914.19,543.75Zm-180,111.15c-4-16.79-7.47-32.91-8-49.57s.94-33.15,6.46-49.51C701.37,584.21,699,630.69,734.24,654.9Zm127-309.23a91.84,91.84,0,0,0-10.07,14.44c-8.77,14.74-15,30.21-13.28,47.84,1.15,11.72,4.12,22.88,11.63,32.28,7.64,9.56,17.86,15.16,30.06,18.83-.75-.82-1-1.14-1.29-1.41a73.58,73.58,0,0,1-20-28.59c-8.43-21.85-8.68-44.11-2.77-66.6C857.05,356.73,859.25,351.25,861.24,345.67ZM800.86,760.32a67.58,67.58,0,0,0-16,18.14c9,1.16,16.19-2.73,23.8-5.74Z" transform="translate(-627.15 -138.3)"/><path class="cls-5" d="M930.74,414c-1.92-.45-3.61-.08-4.76-1.41,6.15-10.1,19.06-20.42,31-18.74,6.84.95,12.35,4.86,17.35,9.37,1,.94,2.38,2.57.29,4.1-.14.1-.17.57-.08.8,2.29,5.33-.84,9.32-3.44,13.32a16.4,16.4,0,0,1-10.79,7.06c-9,2-16.83-.32-24-5.73-1.32-1-2.54-2.09-3.86-3.09C930.62,418.27,929.57,416.58,930.74,414Zm29.66-5.72c-6.16-3-14.12-2.06-18.78,2.11C947.88,409.91,954.07,409.64,960.4,408.29Z" transform="translate(-627.15 -138.3)"/><path class="cls-5" d="M849.91,236c1,2.07-.61,3.06-1.45,4.21a153.38,153.38,0,0,0-23.32,46.53c-1,3.36-1.14,7-2.66,10.47C818.21,285.88,839.62,238.3,849.91,236Z" transform="translate(-627.15 -138.3)"/><path class="cls-4" d="M1031.49,188.09c-.79-.1-1.19,0-1.37-.2-6.62-6.3-15.22-7-23.6-8.43-1.91-.31-3.83-.65-5.71-1.13-1.27-.33-2.33-1.14-2-2.65s1.71-1.78,2.94-1.65a60.5,60.5,0,0,1,7.59,1.18c7.07,1.69,14.31,3,19.65,8.7A9.9,9.9,0,0,1,1031.49,188.09Z" transform="translate(-627.15 -138.3)"/><path class="cls-4" d="M1015.23,465.15c-2.21-1.72-1.37-3.81-1.48-5.61a13.4,13.4,0,0,1,1.67-7.63,1.85,1.85,0,0,1,2-1.11c.68.12,1.22.55,1.19,1.2C1018.41,456.53,1017.79,461,1015.23,465.15Z" transform="translate(-627.15 -138.3)"/><path class="cls-5" d="M1122.51,351a31.24,31.24,0,0,0-13.23-16.56.47.47,0,0,1,0-.82A31.25,31.25,0,0,0,1122.51,317a.46.46,0,0,1,.88,0,31.31,31.31,0,0,0,13.24,16.55.47.47,0,0,1,0,.82A31.3,31.3,0,0,0,1123.39,351,.47.47,0,0,1,1122.51,351Z" transform="translate(-627.15 -138.3)"/><path class="cls-5" d="M705.41,836.6a31.24,31.24,0,0,0-13.24-16.55.48.48,0,0,1,0-.83,31.24,31.24,0,0,0,13.24-16.55.46.46,0,0,1,.88,0,31.19,31.19,0,0,0,13.24,16.55.48.48,0,0,1,0,.83,31.19,31.19,0,0,0-13.24,16.55A.47.47,0,0,1,705.41,836.6Z" transform="translate(-627.15 -138.3)"/><path class="cls-5" d="M1079.12,290.74a19.57,19.57,0,0,0-8.3-10.39.3.3,0,0,1,0-.52,19.61,19.61,0,0,0,8.3-10.39.3.3,0,0,1,.56,0,19.62,19.62,0,0,0,8.31,10.39.3.3,0,0,1,0,.52,19.59,19.59,0,0,0-8.31,10.39A.3.3,0,0,1,1079.12,290.74Z" transform="translate(-627.15 -138.3)"/></svg>