<?xml version="1.0" encoding="utf-8"?>
<!-- Generator: Adobe Illustrator 22.1.0, SVG Export Plug-In . SVG Version: 6.00 Build 0)  -->
<svg version="1.1" id="Layer_1" xmlns="http://www.w3.org/2000/svg" xmlns:xlink="http://www.w3.org/1999/xlink" x="0px" y="0px"
	 viewBox="0 0 1920 1080" style="enable-background:new 0 0 1920 1080;" xml:space="preserve">
<style type="text/css">
	.st0{fill:#F2CBA0;}
	.st1{fill:#FFC250;}
	.st2{fill:#FFFFFF;}
	.st3{fill:#7A73B9;}
	.st4{fill:#68594B;}
</style>
<g>
	<path class="st0" d="M1191.1,278c0.3,11.3-1.3,22.4-2.4,33.6c-1.1,11.8-2.3,23.5-3.7,35.3c-3.7,30.6-11.6,60-24.1,88.3
		c-6.1,13.8-11.7,27.8-19.9,40.6c-9.9,15.4-22.5,28.1-38.5,37.3c-13.9,7.9-28.3,8.8-43.4,4c-19.2-6.1-35-17.3-48.4-32
		c-22.5-24.8-41-52.4-56.9-81.8c-11.5-21.2-22.3-42.7-30.1-65.5c-4.6-13.4-8-27-8.2-41.3c-0.3-25.5,9.9-45.7,30.9-60.2
		c7.1-4.9,13.1-11.3,20.4-16.1c14-9.3,29.4-16.1,44.3-23.8c17-8.7,34.8-14.8,53.2-19.3c14.8-3.6,29.6-3.4,44.5-0.8
		c9.9,1.7,20,3.1,29.4,6.9c26.2,10.7,42.6,29.8,49.2,57.3C1190.3,252.9,1191.4,265.4,1191.1,278z"/>
	<path class="st1" d="M748.4,635.6c15.6-0.8,30.6,3.1,45.8,5.9c21,3.9,41.3,9.9,60.8,18c30.3,12.6,51.5,34.9,63.7,65.5
		c6.8,16.9,10.2,34.6,9.3,52.8c-1.7,33.6-9.4,65.6-28.5,93.9c-14.4,21.4-33.2,37.9-57.8,46.5c-28.4,9.9-54.4,3.8-77.6-14.7
		c-13.6-10.9-24.3-24.6-35.5-37.9C716.3,851,704,836.4,693,820.8c-15.4-21.9-28.9-44.8-36.7-70.7c-4.9-16.2-7.2-32.8-2.3-49.3
		c7.2-24.1,22.4-41.3,45.9-51c3.1-1.3,6-2.8,8.7-4.6c10.7-7,22.3-10.3,35.1-9.7C745.3,635.7,746.8,635.6,748.4,635.6z"/>
	<path class="st2" d="M697.7,450.1c-0.1-18.6,1.5-35,7.8-50.7c4.3-10.6,10.2-20.5,17.6-29.3c2.7-3.2,5.9-6,9.6-8
		c14.2-7.6,28.6-14.6,44.3-18.5c18.5-4.6,37-3.8,55.6,0.2c13.2,2.8,26.3,6.2,37.9,13.3c19.2,11.7,32.2,28,35,50.9
		c1.9,15.5-1.6,30.3-9.1,44.1c-7.4,13.8-17.2,25.8-28.4,36.7c-17.6,17.3-36.5,32.9-57.9,45.4c-12.8,7.4-26.6,11.8-41.4,12.3
		c-27.9,1.1-49.2-12.9-61-39.5c-5.7-12.8-8-26.4-9.3-40.2C697.9,460.6,697.6,454.4,697.7,450.1z"/>
	<g>
		<path class="st3" d="M831.1,515.2c-5.5-5.6-10.8-10.1-17.7-12.4c-1.5-0.5-2.9-1.1-4.3-1.7c-1-0.4-1.8-1.2-1.5-2.4
			c0.4-1.5,1.5-1,2.5-0.9c6.8,0.9,12.9,3.2,18.3,7.5c9.3,7.4,17.1,15.8,19.5,28c1.5,7.6,1.9,15.3-0.3,23.7
			c4.5-5.8,6.5-11.7,6.9-18.1c0.9-14.6-5.1-26.4-15.5-36.2c-7.6-7.1-16.1-13.2-24.2-19.8c-14.5-11.8-24.9-26.2-28.8-44.8
			c-2.9-14-1.1-27.6,3.2-41c4.8-15.1,12.8-28,25.3-37.9c0.4-0.3,0.8-0.7,1.2-1c0.9-0.5,1.9-1.6,3-0.4c0.9,1.1-0.3,1.9-0.9,2.6
			c-3.6,3.9-7.4,7.5-10.8,11.5c-8.5,10-12.9,21.9-15.6,34.5c-6,29.1,3.7,52.6,26.1,71.3c8.4,7,17.4,13.2,25.3,20.9
			c8.3,8.1,14.4,17.4,16.2,29.2c2.5,16.1-2.5,29.4-14.9,40c-7.5,6.4-16.7,9.6-25.9,12.5c-11.1,3.5-22.1,7.1-31.9,13.6
			c-13.3,8.7-23.1,20.2-25.7,36.2c-3.2,19.7,1.1,37.7,13.6,53.7c12.3,15.7,28.5,23.7,47.8,26.7c14.9,2.3,29.3,0.7,42.9-6.1
			c0.9-0.4,1.9-0.7,2.7-1.9c-12.5,1.8-22.6-2.8-31.5-11c-8.7-8-14.4-17.7-16.8-29.2c-5.7-27.3,5.3-52.9,29.6-69.4
			c8.3-5.6,17.3-9.9,25.9-15c22.6-13.4,36.9-32.7,42.1-58.5c3.9-19.5-5.5-41.1-26.9-50.6c-7.4-3.3-15.2-5.5-22.6-8.9
			c-19.2-8.9-29.7-24.2-33.3-44.8c-2.7-15.2-0.6-29.8,5.7-43.6c9.2-20.1,21.5-38,38.3-52.6c9.2-8.1,19.6-14.7,29.5-21.9
			c5.1-3.7,9.2-8.2,12.9-13.3c5.1-7.1,5.9-15.1,5.1-23.6c-1.2-13.5-5.1-26.3-7.9-39.5c-2-9.3,0.8-17.3,6.7-24.3
			c7.2-8.5,16.6-13.5,27.7-14.6c8.1-0.8,18.3,3.3,20.4,12.4c0.7,3.2,0.7,6.5-0.1,9.8c-0.3,1.1-0.8,2-2.1,1.7
			c-1.2-0.2-1.1-1.3-1.1-2.3c0-0.2,0-0.4,0-0.6c-0.2-13.2-7.3-18.9-20.4-16.4c-6.3,1.2-11.7,4.1-17.3,8.4c4.1-0.2,7.6-1,11,0.5
			c3.4,1.5,6.1,3.7,8.1,7.5c-2.8-0.7-4.8-2-6.7-3.2c-5.7-3.6-11.8-2.6-16.7,0.6c-4.5,3-6.1,8.7-6.3,14.2c-0.2,7.3,2.2,14.1,3.9,21.1
			c2.4,9.8,4.3,19.7,5.2,29.7c0.9,10.3-3,18.9-9.5,26.6c-6.4,7.6-14.2,13.7-22.5,19.2c-21.2,14.1-34.5,33.7-39.6,58.8
			c-0.8,4.1,0.5,7.9,1.6,11.8c4.6,16.1,9,32.1,16.6,47.2c10,19.8,26.3,30.6,47.5,34.6c10.8,2.1,21.9,2.7,32.9,0.7
			c16.6-3.1,31.3-10.1,43.7-21.8c6.9-6.5,9.8-14.7,11.6-23.5c0.2-0.9,0.4-1.8,0.6-2.7c1.4-6.1,1.8-6.5,8-8c0.4-6.5,0.9-13,1.3-19.6
			c0.1-2.1,0-4.1,0.1-6.2c0.2-5.1,1.6-8.9,7.2-11.1c8.6-3.4,13.7-10.6,16.7-19.2c4.2-12.2,5.2-24.7,2.1-37.4
			c-0.2-0.8-0.4-1.6-0.7-2.4c-2.5-7.2-6-10.2-11.9-10.2c-6.5,0-12.7,4.3-14.9,10.5c-0.2,0.7-0.3,1.4-0.6,2.1
			c-0.4,0.9-0.7,2.1-2.1,1.7c-1.2-0.4-1.4-1.4-1.3-2.5c0.3-2.1,0.8-4.2,1.8-6.2c4.2-7.9,13.7-12.1,22.3-9.7c4.7,1.3,7.6,4.7,9.8,8.9
			c2.7,5,3.6,10.5,4.1,16c1,13-0.6,25.7-6.9,37.4c-4.1,7.6-10.3,13-18.5,16c-1.6,0.6-2.2,1.4-2.4,3c-0.8,5.8-0.3,11.7-0.9,17.6
			c-0.3,2.9-1.2,5.9-0.6,9c3-1.1,5.4-3,8-4.6c4-2.5,7.9-5.1,12-7.6c1.8-1.1,3.8-2.6,5.9-0.8c2.1,1.7,2.4,4.3,2.1,6.8
			c-1,7.3-5.2,12.9-10.4,17.8c-1.9,1.8-4.1,3.4-6.4,4.8c-4.7,2.8-7.1,7-8.4,12.4c3.2-2.2,5.6-4.7,8-7.1c4.7-4.7,10.2-7.8,16.6-9.7
			c9.4-2.9,18.3-7.3,27.5-10.7c1.1-0.4,2.3-0.7,3.5-1c4.6-1.1,7.1,0,9.4,4.1c12.9-2.7,25.7-1.9,38.5,0.9c9.8,2.1,17.6,8.1,24.7,14.7
			c15.2,14.2,23.9,31.9,27.3,52.4c2.6,15.5,3.2,31.1,3.8,46.8c0.6,18.5,1.6,36.9,2.3,55.3c0.2,5.1,0.3,10.1,0.1,15.2
			c-0.1,2.6-1.2,4.8-3.1,6.8c-5.6,5.9-12.4,10.2-19.2,14.4c-1.8,1.1-2.5,2.2-2.5,4.3c0.1,9.1,0.1,18.2,0,27.2
			c-0.3,22.8-1.2,45.6-2.9,68.3c-0.7,9.6-0.8,19.2-1.4,28.7c-1.1,15.5-2,31-6.6,46c-3.7,12.2-11,20.8-22.2,26.7
			c-13.1,7-27.3,10.7-41.6,14.1c-19.7,4.8-39.8,7.2-60,9.4c-23.3,2.6-46.8,4.2-70.2,6.1c-3.5,0.3-6.9,0.9-10.4,1.1
			c-1.3,0.1-2,1-2.7,1.8c-4.9,5.4-10.5,9.9-16.5,13.9c-10.7,7.1-22,8.4-34.1,3.8c-16.7-6.3-30.1-17.1-42.1-30
			c-14.5-15.5-25.8-33.4-37.2-51.2c-2.1-3.3-4.2-6.6-6.3-10c-6,2.9-11.8,5.5-18.2,7c-5.8,1.3-11-0.2-16-2.6c-2.1-1-2.8-3.5-4.5-5
			c-11.1,4.4-21.8,1.8-31.9-2.9c-10.6-4.9-17.2-13.5-18.9-25.6c-2.8,0.8-5.6,1.6-8.3,2.3c-10.9,2.8-27-6.1-31.4-21.3
			c-3.3-11.3-0.5-21.8,5.5-31.5c3-4.9,6.5-9.5,9.6-14.4c5.3-8.2,3.3-16.4-5-21.6c-3.9-2.4-8.2-3.7-12.4-5.4
			c-27.2-10.4-41.8-31-47.1-58.8c-1.7-9-0.1-18.1,2.6-26.8c0.5-1.7,0.4-2.9-0.7-4.5c-8.2-12.6-9.3-25.8-4.4-40.1
			c6-17.5,18.4-28.9,33.9-37.7c11.3-6.4,23.7-10.4,35.6-15.4c22.3-9.3,41.1-23.1,54.5-43.5c9.2-14,14.2-29.6,15.7-46.2
			c1.6-16.4-0.3-32.7-2.4-49c-2.1-16.4-4.7-32.8-4.5-49.5c0.3-25.1,10.8-45.1,29.6-61.3c14.8-12.7,32.2-20.5,50.1-27.4
			c13-5,25.9-10.2,36.8-19.1c8.3-6.8,16.6-13.6,24.5-20.8c12.1-11,26.4-15.9,42.4-17.1c10.2-0.8,20.2,0.2,29.6,4.5
			c7.9,3.6,13.7,9.4,17.1,17.5c1.1,2.7,1.1,5.4,0.8,8.2c-0.1,0.9-0.6,1.8-1.7,1.9c-1.2,0-1.6-1-1.7-1.9
			c-2.2-14.5-12.1-21.4-25.2-23.8c-21.8-4-41.5,0.8-58.7,15.6c-10.8,9.3-21.1,19.1-33.2,26.7c-10,6.3-21,10.3-32,14.4
			c-15.5,5.9-30.5,12.7-43.6,23.4c-14.4,11.8-24.8,26.1-28.3,44.7c-1.4,7.2-1.7,14.5-1.4,21.9c0.7,17,4,33.7,5.7,50.6
			c2.2,21.3,3.5,42.5-3.1,63.4c-8.8,28-26.8,48.3-51.4,63.3c-11.9,7.3-25.1,11.8-37.9,17c-11.3,4.6-22,10.3-31.1,18.6
			c-12,11-18.1,24.8-17.9,41.1c0.1,6,2.3,11.7,4.7,18c1.1-2.7,2-4.7,2.8-6.8c5.3-12.7,15.6-20.4,27.2-26.8
			c8.4-4.6,17.7-7.1,26.6-10.5c18.6-6.9,32.7-19.5,44.7-34.8c1.8-2.4,3.1-5.1,4.4-7.8c0.6-1.2,1-2.8,3.2-2.6c1,3-0.5,5.6-1.7,8.1
			c-4.5,9.5-11.9,16.7-19.4,23.8c-11.4,10.9-25.3,17.1-40,21.8c-6.7,2.2-13,5-19.1,8.5c-13.5,7.6-20.8,19.4-24.9,34.1
			c-6.1,22.5,0.1,41.8,13.8,59.5c7.5,9.6,17,16.3,28.3,20.7c5.1,2,10.2,4,14.4,7.6c8.6,7.5,10,17.2,3.8,26.7
			c-2.6,4.1-5.4,8.1-8,12.1c-3.7,5.6-6,11.7-6.8,18.3c-1.9,16.9,14.9,33,31.3,27.8c6.7-2.1,7.9-1.2,9.7,5.6
			c3.6,13.3,13.1,19.8,26,22.4c5.2,1.1,10.5,2.2,15.7-0.2c-14-28.8-19.8-60.2-28.3-90.7c-1.4-4.9-2.7-9.9-3.9-14.9
			c-0.5-2-1.6-3.4-3.1-4.8c-5.4-5-11.5-9.4-16.3-15.1c-11.6-14-15.6-29.9-13.5-47.9c2.5-20.5,13.8-35.7,28.4-49.1
			c4.3-4,8.9-7.6,12.7-12.1c6.2-7.3,14.2-12.2,23.4-14.8c14.9-4.3,30-6.9,45.4-8.1C819.4,513.4,824.9,514.4,831.1,515.2z
			 M804.8,755.7c4.8,7.5,9.4,14.6,14,21.6c12.7,19.4,24.5,39.4,40.4,56.5c11.2,12.1,23.5,22.5,39.2,28.4c8.3,3.2,16.6,3.8,24.8-0.5
			c11-5.8,20-14,26.3-24.8c11.8-20.1,20.3-41.7,27.7-63.8c7.5-22.5,14.4-45.2,22.1-67.6c9.2-27,18.4-54.1,25.2-81.8
			c4.7-18.9,11.8-36.3,23.1-52c5.2-7.1,7.1-15.2,7.5-23.7c0.5-10.3-1.2-20.6-2.1-30.8c-0.7-7.6-1.4-15.2-0.1-22.8
			c2.3-14.1,7.6-27.2,14.1-39.9c6-11.6,13.7-22,20.4-33.1c1.1-1.8,2.3-3.6,2.6-6c-2.1,0.3-3.4,1.5-4.7,2.5
			c-6.7,5.4-12.9,11.2-18.7,17.6c-3.1,3.4-6.2,6.9-8.8,10.8c-0.6,1-1.6,1.8-2.9,1.2c-1.5-0.8-0.6-2.1-0.2-3c0.9-2.5,2.4-4.8,4.1-6.9
			c8.8-10.5,18.1-20.6,30.3-27.5c-2.5-2-5.1-1.4-7.4,0c-9.8,6.1-18.9,13.2-26.8,21.7c-4.3,4.6-8.6,9.2-12.9,13.8
			c-0.8,0.8-1.8,1.8-2.9,0.8c-1.2-1-0.5-2.2,0.3-3.3c0.4-0.6,0.9-1.1,1.4-1.6c7.7-7.9,15.1-16.1,23.9-22.8c0.4-0.3,1-0.6,0.7-1.6
			c-2.3,0.9-4.4,2.1-6.6,2.7c-9.3,2.7-17.2,7.6-23.8,14.7c-2.6,2.8-6,5-9,7.5c-1,0.8-2.2,1.4-3.4,0.6c-1.3-0.9-0.3-2,0-3.1
			c0.2-0.7,0.4-1.4,0.5-2.1c2-8.4,4.9-16,13.2-20.6c5.3-2.9,9-7.7,11.8-13.2c1.2-2.4,2.2-5,1.2-8.1c-4.1,1.8-7.4,4.4-10.9,6.7
			c-5.8,3.9-11.4,8-18.2,10.1c-0.9,0.3-1.3,0.7-1.5,1.7c-2.5,11.4-6.5,22.5-10,33.6c-1.9,6.1-2.8,11.8-2,18.3
			c1.6,12.6,3.7,25.1,5.5,37.6c2.3,16.1,3.4,32.2,2.1,48.4c-0.1,1.2,0,2.8-0.9,3.5c-1.7,1.2-2.1,3-2.6,4.7c-1.6,5.3-3.7,10.4-6,15.5
			c-9,19.4-20.4,37.4-31.3,55.8c-17.8,30.1-36.7,59.5-59.3,86.3c-4.6,5.4-9,11.1-11.9,17.6c-7.3,16.7-8.1,34-4.7,51.7
			c0.3,1.3,0.7,2.6,0.1,4.3c-2.1-1.9-2.7-4.2-3.4-6.4c-3.1-11.1-4.3-22.3-1.9-33.6c0.8-3.8,0.1-6.1-3.3-8.6
			c-4.8-3.5-8.4-8.5-12.1-13.2c-0.6-0.8-1-2.1-2.3-1.7c-6.1,1.8-12.5,1.1-18.6,2.6c-12.1,2.9-23.2,8.3-34,14.3
			C816.3,748,810.7,751.9,804.8,755.7z M952.7,843c3.9-0.5,7.3-1,10.7-1.3c21.5-1.7,42.9-3.2,64.4-5.5c21.7-2.4,43.3-5,64.6-10.1
			c13.1-3.1,26.1-6.6,38-13.2c9.5-5.2,15.6-12.6,18.5-23.1c3.7-13.2,4.8-26.7,6-40.2c1.5-17.1,2.3-34.3,3.6-51.5
			c1.5-20,2.2-40,1.8-60c-0.1-5.7,0-11.4,0-17.5c-4.1,1.7-7.3,3.1-10.5,4.2c-18.5,6.4-37.6,10.4-56.6,14.6c-3.2,0.7-3.6,2.4-3.8,4.8
			c-0.8,10.2-1.9,20.3-3.1,30.4c-2.4,19.6-6,39-10.3,58.3c-1.1,5.2-2.5,10.4-3.8,15.9c4.3-1,8.3-2.1,12.2-1.9
			c13.8,0.5,25.6,5.5,34.8,16.1c2.9,3.3,5.5,7,6.6,11.4c0.3,1.1,0.9,2.9-0.9,3.4c-1.7,0.4-1.8-1.2-2.3-2.3
			c-6.9-14.7-23.2-24.5-39.4-23.1c-11.8,1-22.5,5.5-32.8,11c-23.2,12.3-47.1,22.9-72.4,30c-1.2,0.3-2.1,0.8-2.7,2.2
			C969.1,811.7,961.8,827.4,952.7,843z M914.2,543.7c5.5,2.2,10.5,4.4,15.7,5.9c4.7,1.4,9.6,2.6,14.5,2.7
			c12.4,0.4,23.5-3.6,33.8-10.1c11.3-7.1,20.6-16.4,29.1-26.6c1.4-1.7,1.6-3.4,1.3-5.4c-1-6.5-1.8-13.1-2.9-19.6
			c-1-6.2-1.2-12.5-2.4-18.7c-1-5.4-1.8-10.7-1.9-16.2c-0.1-3.9,1.8-7.3,2.4-11.1c-1-0.1-1.3,0.7-1.8,1.2
			c-9.1,8.7-19.4,15.7-31.5,19.5c-18.6,6-37.4,5.6-56.2,0.1c-12.9-3.8-24.2-10.4-32.7-20.9c-10.1-12.3-15.9-26.8-20.2-41.9
			c-1.6-5.6-3-11.3-4.5-16.9c-0.6,4.9-0.4,9.6,0,14.3c1.5,16.5,6.1,31.9,16.4,45.2c6.3,8.2,13.1,15.8,22.6,20.7
			c21.2,11.1,31.1,34,25.2,57.5C919.4,530.4,917.2,537,914.2,543.7z M734.2,654.9c-4-16.8-7.5-32.9-8-49.6
			c-0.5-16.8,0.9-33.2,6.5-49.5C701.4,584.2,699,630.7,734.2,654.9z M861.2,345.7c-4,4.5-7.1,9.4-10.1,14.4
			c-8.8,14.7-15,30.2-13.3,47.8c1.1,11.7,4.1,22.9,11.6,32.3c7.6,9.6,17.9,15.2,30.1,18.8c-0.7-0.8-1-1.1-1.3-1.4
			c-8.9-8-15.7-17.5-20-28.6c-8.4-21.8-8.7-44.1-2.8-66.6C857,356.7,859.2,351.2,861.2,345.7z M800.9,760.3
			c-6.5,5.2-11.6,11-16,18.1c9,1.2,16.2-2.7,23.8-5.7C806,768.4,803.5,764.4,800.9,760.3z"/>
		<path class="st4" d="M930.7,414c-1.9-0.5-3.6-0.1-4.8-1.4c6.2-10.1,19.1-20.4,31-18.7c6.8,1,12.3,4.9,17.3,9.4
			c1,0.9,2.4,2.6,0.3,4.1c-0.1,0.1-0.2,0.6-0.1,0.8c2.3,5.3-0.8,9.3-3.4,13.3c-2.5,3.9-6.3,6.1-10.8,7.1c-9,2-16.8-0.3-24-5.7
			c-1.3-1-2.5-2.1-3.9-3.1C930.6,418.3,929.6,416.6,930.7,414z M960.4,408.3c-6.2-3-14.1-2.1-18.8,2.1
			C947.9,409.9,954.1,409.6,960.4,408.3z"/>
		<path class="st4" d="M849.9,236c1,2.1-0.6,3.1-1.5,4.2c-10.4,14.2-18.2,29.7-23.3,46.5c-1,3.4-1.1,7-2.7,10.5
			C818.2,285.9,839.6,238.3,849.9,236z"/>
		<path class="st3" d="M1031.5,188.1c-0.8-0.1-1.2,0-1.4-0.2c-6.6-6.3-15.2-7.1-23.6-8.4c-1.9-0.3-3.8-0.7-5.7-1.1
			c-1.3-0.3-2.3-1.1-2-2.7c0.3-1.5,1.7-1.8,2.9-1.6c2.5,0.3,5.1,0.6,7.6,1.2c7.1,1.7,14.3,3,19.6,8.7
			C1030.1,185,1030.9,186.2,1031.5,188.1z"/>
		<path class="st3" d="M1015.2,465.1c-2.2-1.7-1.4-3.8-1.5-5.6c-0.2-2.7,0.3-5.3,1.7-7.6c0.4-0.7,1-1.3,2-1.1
			c0.7,0.1,1.2,0.6,1.2,1.2C1018.4,456.5,1017.8,461,1015.2,465.1z"/>
	</g>
	<path class="st4" d="M1122.5,350.9c-2.6-7.2-7.3-13.1-13.2-16.6c-0.3-0.2-0.3-0.6,0-0.8c5.9-3.4,10.6-9.3,13.2-16.6
		c0.1-0.4,0.7-0.4,0.9,0c2.6,7.2,7.3,13.1,13.2,16.6c0.3,0.2,0.3,0.6,0,0.8c-5.9,3.4-10.6,9.3-13.2,16.6
		C1123.2,351.4,1122.7,351.4,1122.5,350.9z"/>
	<path class="st4" d="M705.4,836.6c-2.6-7.2-7.3-13.1-13.2-16.6c-0.3-0.2-0.3-0.6,0-0.8c5.9-3.4,10.6-9.3,13.2-16.6
		c0.1-0.4,0.7-0.4,0.9,0c2.6,7.2,7.3,13.1,13.2,16.6c0.3,0.2,0.3,0.6,0,0.8c-5.9,3.4-10.6,9.3-13.2,16.6
		C706.1,837,705.6,837,705.4,836.6z"/>
	<path class="st4" d="M1079.1,290.7c-1.6-4.5-4.6-8.2-8.3-10.4c-0.2-0.1-0.2-0.4,0-0.5c3.7-2.2,6.7-5.9,8.3-10.4
		c0.1-0.3,0.5-0.3,0.6,0c1.6,4.5,4.6,8.2,8.3,10.4c0.2,0.1,0.2,0.4,0,0.5c-3.7,2.2-6.7,5.9-8.3,10.4
		C1079.6,291,1079.2,291,1079.1,290.7z"/>
</g>
</svg>
